<?xml version="1.0" encoding="iso-8859-1"?>
<!-- Uploaded to: SVG Repo, www.svgrepo.com, Generator: SVG Repo Mixer Tools -->
<svg fill="rgb(197 199 198)" height="800px" width="800px" version="1.1" id="Layer_1" xmlns="http://www.w3.org/2000/svg" xmlns:xlink="http://www.w3.org/1999/xlink" 
	 viewBox="0 0 511.998 511.998" xml:space="preserve">
<g>
	<g>
		<circle cx="256.601" cy="347.768" r="21.829"/>
	</g>
</g>
<g>
	<g>
		<path d="M462.997,253.8l-36.958-36.958c-6.513-6.513-17.075-6.513-23.59,0l-9.284,9.284l-79.3-79.301V112.59
			c0-9.212-7.469-16.681-16.681-16.681h-5.323V70.982h9.982c5.26,0,10.214-2.481,13.363-6.696c3.148-4.215,4.125-9.667,2.633-14.712
			l-11.12-37.62C304.623,4.864,298.113,0,290.722,0h-69.366c-7.391,0-13.902,4.864-15.997,11.952l-11.12,37.62
			c-1.491,5.045-0.515,10.498,2.633,14.712c3.149,4.215,8.102,6.696,13.363,6.696h9.982v24.926h-4.211
			c-9.212,0-16.681,7.469-16.681,16.681v33.124l-80.453,80.454l-9.326-9.326c-3.128-3.128-7.371-4.886-11.794-4.886
			s-8.667,1.757-11.794,4.886l-36.958,36.958c-6.514,6.513-6.514,17.075,0,23.59l9.435,9.435c-6.514,6.513-6.514,17.075,0,23.59
			s17.075,6.514,23.59,0l16.12,16.12c-6.514,6.513-6.514,17.075,0,23.59c6.514,6.514,17.075,6.514,23.59,0l16.12,16.12
			c-6.514,6.514-6.514,17.075,0,23.59c6.512,6.514,17.074,6.515,23.59,0l8.413,8.413v97.073c0,9.212,7.469,16.681,16.681,16.681
			h139.005c9.212,0,16.681-7.469,16.681-16.681v-97.156l8.331-8.331c6.514,6.514,17.075,6.514,23.59,0
			c6.514-6.513,6.514-17.075,0-23.59l16.12-16.12c6.514,6.514,17.075,6.514,23.59,0c6.514-6.513,6.514-17.075,0-23.59l16.12-16.12
			c6.512,6.514,17.074,6.515,23.59,0c6.514-6.513,6.514-17.075,0-23.59l9.435-9.435C469.511,270.875,469.511,260.313,462.997,253.8z
			 M121.733,302.944l-16.12-16.12l13.368-13.368l16.12,16.12L121.733,302.944z M280.504,129.269v11.54h-47.818v-11.54
			C238.719,129.269,275.198,129.269,280.504,129.269z M253.578,95.908V70.982h4.922v24.926H253.578z M233.82,33.361h44.438
			l1.26,4.259c-28.884,0-19.365,0-46.958,0L233.82,33.361z M171.704,332.391l-10.262,10.263l-16.12-16.12l13.368-13.368
			l14.219,14.22C172.679,328.223,172.047,330.762,171.704,332.391z M308.861,391.255v87.384H203.217v-87.302
			c0-44.85-0.041-41.867,0.101-44.278c-0.562-32.934,27.105-49.683,52.721-49.683c29.302,0,52.822,23.879,52.822,52.822V391.255z
			 M350.553,342.653l-10.156-10.156c-0.353-1.684-1.002-4.286-1.247-5.175l14.155-14.155l13.368,13.368L350.553,342.653z
			 M369.425,249.865l-16.12,16.12c-6.513-6.513-17.075-6.513-23.589,0.001c-6.514,6.513-6.514,17.075,0,23.589l-6.598,6.598
			c-15.811-19.593-40-32.158-67.078-32.158c-27.1,0-51.305,12.585-67.116,32.205l-6.643-6.643c6.514-6.513,6.514-17.075,0-23.59
			c-6.513-6.513-17.075-6.513-23.59,0l-16.12-16.12c0,0-3.72,3.502,75.476-75.697h75.983
			C373.257,253.397,369.425,249.865,369.425,249.865z M390.263,302.943l-13.368-13.368l16.12-16.12l13.368,13.368L390.263,302.943z"
			/>
	</g>
</g>
</svg>