<?xml version="1.0" encoding="iso-8859-1"?>
<!-- Uploaded to: SVG Repo, www.svgrepo.com, Generator: SVG Repo Mixer Tools -->
<svg fill="rgb(197 199 198)" height="800px" width="800px" version="1.1" id="Layer_1" xmlns="http://www.w3.org/2000/svg" xmlns:xlink="http://www.w3.org/1999/xlink" 
	 viewBox="0 0 512.001 512.001" xml:space="preserve">
<g>
	<g>
		<path d="M497.268,157.194l-23.744-23.744c-6.556-6.556-17.187-6.556-23.744,0l-11.871,11.871l-71.233-71.233l11.871-11.871
			c3.149-3.149,4.918-7.419,4.918-11.871s-1.768-8.724-4.918-11.871l-23.745-23.745c-19.638-19.638-51.594-19.638-71.232,0
			L236.08,62.218c-6.557,6.556-6.557,17.187,0,23.744l35.617,35.617l-64.957,64.957l-11.873-11.873
			c-6.556-6.556-17.187-6.556-23.744,0c-6.557,6.556-6.557,17.187,0,23.744l11.873,11.873l-23.744,23.744l-11.873-11.873
			c-6.556-6.556-17.187-6.556-23.744,0c-6.557,6.556-6.557,17.187,0,23.744l11.873,11.873l-23.745,23.745L99.89,269.64
			c-6.556-6.556-17.187-6.556-23.744,0c-6.557,6.556-6.557,17.187,0,23.744l11.873,11.873l-23.744,23.744L52.41,317.128
			c-6.556-6.556-17.187-6.556-23.744,0c-6.557,6.556-6.557,17.187,0,23.744l11.873,11.873L4.922,388.362
			c-6.558,6.556-6.558,17.187,0,23.743l94.977,94.978c3.149,3.149,7.419,4.918,11.871,4.918s8.724-1.769,11.871-4.918l35.617-35.617
			l11.871,11.871c3.278,3.278,7.576,4.918,11.871,4.918c4.296,0,8.594-1.64,11.871-4.918c6.557-6.556,6.557-17.187,0-23.744
			l-11.871-11.871l23.744-23.744l11.873,11.873c3.279,3.278,7.576,4.918,11.871,4.918c4.296,0,8.594-1.64,11.871-4.918
			c6.557-6.556,6.557-17.187,0-23.744l-11.873-11.873l23.745-23.745l11.873,11.873c3.279,3.278,7.576,4.918,11.871,4.918
			s8.594-1.64,11.871-4.918c6.557-6.556,6.557-17.187,0-23.744l-11.873-11.873l23.744-23.744l11.871,11.871
			c3.279,3.278,7.576,4.918,11.871,4.918s8.594-1.64,11.871-4.918c6.557-6.556,6.557-17.187,0-23.744l-11.871-11.871L390.42,240.3
			l35.617,35.617c3.149,3.149,7.419,4.918,11.871,4.918c4.453,0,8.724-1.768,11.871-4.918l47.488-47.489
			C516.907,208.788,516.907,176.833,497.268,157.194z M111.771,471.466l-71.233-71.234l23.745-23.744l71.233,71.233L111.771,471.466
			z M159.26,423.977l-71.233-71.233L111.771,329l71.233,71.233L159.26,423.977z M206.748,376.49l-71.233-71.233l23.745-23.745
			l71.233,71.233L206.748,376.49z M254.237,329l-71.233-71.233l23.744-23.744l71.233,71.233L254.237,329z M301.725,281.513
			l-71.233-71.233l64.957-64.957l71.233,71.233L301.725,281.513z M473.531,204.682l-35.615,35.617L271.705,74.089l35.617-35.617
			c6.548-6.546,17.198-6.546,23.744,0l11.871,11.873l-11.871,11.871c-3.149,3.149-4.918,7.419-4.918,11.871
			s1.768,8.724,4.918,11.871l94.978,94.977c6.556,6.556,17.187,6.556,23.744,0l11.871-11.871l11.871,11.871
			C480.078,187.484,480.078,198.135,473.531,204.682z"/>
	</g>
</g>
</svg>